<svg width="1920" height="1080" viewBox="0 0 1920 1080" xmlns="http://www.w3.org/2000/svg"><rect width="1920" height="1080" fill="#121312"/><path d="M2521.457627281888,1124.9999999999998C2474.6624772071896,1215.058338824394,2366.4618507550204,1313.3260457888425,2330.3881927837597,1407.0524823068502C2294.314534812499,1500.7789188248578,2336.302323895761,1619.9853016222933,2305.015679454323,1687.3586191080458C2273.729035012885,1754.7319365937983,2210.9598569452314,1780.2035868183384,2142.668326135131,1811.292387221365C2074.3767953250303,1842.3811876243917,1989.7112156162411,1931.7119197497223,1895.2664945937192,1873.891421526205C1800.8217735711974,1816.0709233026878,1644.3659207442286,1522.5448115980696,1576.0000000000002,1464.3693978802612C1507.634079255772,1406.1939841624528,1492.0511087968048,1563.154597692605,1485.0709701283492,1524.8389392193549C1478.0908314598937,1486.5232807461048,1535.8802693080388,1328.6042315962059,1534.1191679892665,1234.4754470407602C1532.3580666704943,1140.3466624853145,1509.4846811774623,1056.9519629300332,1474.5043622157161,960.0662318866807C1439.52404325397,863.1805008433282,1273.9796777174404,708.2300310343923,1324.2372542187893,653.1610607806452C1374.4948307201382,598.0920905268982,1684.3220881687316,661.0069892044597,1776.0498212238099,629.6524103641985C1867.7775542788881,598.2978315239374,1814.837374985702,491.3098489548354,1874.6036525492593,465.03358773907826C1934.3699301128167,438.7573265233211,2043.2734362351734,424.28184335128907,2134.647486605154,471.9948430696559C2226.0215369751345,519.7078427880227,2343.429353664677,685.5269850008077,2422.847954769143,751.3115860492792C2502.2665558736094,817.0961870977507,2594.7241478131596,804.4210470353644,2611.1590932319505,866.7024493604845C2627.5940386507414,928.9838516856046,2568.2527773565866,1034.9416611756055,2521.457627281888,1124.9999999999998C2474.6624772071896,1215.058338824394,2366.4618507550204,1313.3260457888425,2330.3881927837597,1407.0524823068502" fill="#8465cb"/></svg>