<svg width="1920" height="1080" viewBox="0 0 1920 1080" xmlns="http://www.w3.org/2000/svg"><rect width="1920" height="1080" fill="#121312"/><path d="M809,20.999999999999815C833.043473349111,81.95237393459553,767.1027008490355,164.06087419638797,703.1590932319507,221.69236147559968C639.2154856148659,279.3238487548114,495.90441220594755,299.5683442857035,425.33835429749087,366.78892367527015C354.7722963890342,434.0095030648368,360.3851960725824,602.3762696156418,279.7627457812106,625.0158378129995C199.14029548983876,647.6554060103572,10.824071217347452,496.0424636885278,-58.396347450739995,502.62633285941604C-127.61676611882744,509.2102020303043,-53.332033172235626,675.0669658252517,-135.55976622731404,664.519052838329C-217.78749928239245,653.9711398514063,-452.4209233940371,521.6030690587146,-551.7627457812105,439.3388549378798C-651.1045681683838,357.0746408170449,-709.8027080888302,256.8683581583146,-731.6107005503542,170.9337681133198C-753.4186930118782,84.99917806832498,-709.2520263452116,9.746651066682944,-682.6107005503543,-76.26868533208905C-655.969374755497,-162.28402173086104,-624.0311958729363,-264.9436547460209,-571.7627457812107,-345.1582502793122C-519.494295689485,-425.3728458126035,-457.72773305507866,-498.43406332402117,-369.00000000000034,-557.5562585318366C-280.272266944922,-616.6784537396521,-127.29158072435274,-691.8491602703616,-39.39634745074068,-699.891421526205C48.49888582287139,-707.9336827820484,66.16401593835803,-644.0527678836073,158.37139964167204,-605.8098260668975C250.57878334498605,-567.5668842501876,447.0934791865413,-547.398427948433,513.8479547691434,-470.43377062594584C580.6024303517455,-393.4691133034587,509.70624559880855,-225.92751056963218,558.8982531372847,-144.02188213197456C608.0902606757608,-62.11625369431695,784.956526650889,-39.95237393459589,809,20.999999999999815C833.043473349111,81.95237393459553,767.1027008490355,164.06087419638797,703.1590932319507,221.69236147559968" fill="#8465cb"/></svg>